<svg xmlns="http://www.w3.org/2000/svg" viewBox="0 0 160 600"><title>txt1c</title><g id="Layer_2" data-name="Layer 2"><g id="Layer_5" data-name="Layer 5"><path d="M22,443.86h3.67v16.81H22Z" fill="#fff"/><path d="M28.28,445.86a2.21,2.21,0,0,1,2.25-2.26,2.25,2.25,0,1,1,0,4.49A2.2,2.2,0,0,1,28.28,445.86Zm.43,3.24h3.65v11.57H28.71Z" fill="#fff"/><path d="M34.56,457.19h3.65c0,.79.77,1.34,1.9,1.34.79,0,1.34-.38,1.34-1.06,0-.52-.26-.84-1.25-1.08l-2.42-.6a3.36,3.36,0,0,1-2.9-3.38c0-2.19,2-3.62,4.94-3.62,3.26,0,5.16,1.27,5.16,3.57H41.36c0-.82-.61-1.25-1.59-1.25-.79,0-1.32.39-1.32.94s.34.86,1.27,1.1l2.45.68c1.83.48,2.93,1.58,2.93,3.33,0,2.4-2,3.82-5.06,3.82C36.75,461,34.56,459.44,34.56,457.19Z" fill="#fff"/><path d="M54.55,457.74v2.93a14.89,14.89,0,0,1-2.44.19c-1.73,0-4.11-.39-4.11-4.25V452H46.18v-2.9H48v-3.43h3.67v3.43h2.62V452H51.67v3.84c0,1.71.7,2,1.61,2A9.92,9.92,0,0,0,54.55,457.74Z" fill="#fff"/><path d="M56.23,445.86a2.27,2.27,0,1,1,2.26,2.23A2.21,2.21,0,0,1,56.23,445.86Zm.44,3.24h3.64v11.57H56.67Z" fill="#fff"/><path d="M63.36,449.1H67v1.68a3.94,3.94,0,0,1,3.75-2c2.81,0,4.22,1.58,4.22,4.72v7.16H71.31v-6c0-1.94-.56-2.83-2-2.83s-2.24,1-2.24,2.74v6.05H63.36Z" fill="#fff"/><path d="M89.88,449.1v10.82a5.64,5.64,0,0,1-2.23,4.87,7.05,7.05,0,0,1-4.13,1,8,8,0,0,1-4.17-.94,4.18,4.18,0,0,1-2.07-3.22H81c.16.92,1,1.47,2.44,1.47,1.71,0,2.74-.75,2.74-2.81v-1.54a4.07,4.07,0,0,1-3.62,1.88c-3.44,0-5.5-2.5-5.5-5.91s2.21-6,5.54-6a3.89,3.89,0,0,1,3.58,2V449.1Zm-3.5,5.71a2.77,2.77,0,1,0-2.79,3A2.77,2.77,0,0,0,86.38,454.81Z" fill="#fff"/><path d="M92.07,457.19h3.64c0,.79.77,1.34,1.9,1.34.79,0,1.34-.38,1.34-1.06,0-.52-.26-.84-1.24-1.08l-2.43-.6a3.36,3.36,0,0,1-2.9-3.38c0-2.19,2-3.62,4.94-3.62,3.27,0,5.16,1.27,5.16,3.57H98.86c0-.82-.6-1.25-1.59-1.25-.79,0-1.32.39-1.32.94s.34.86,1.28,1.1l2.44.68c1.83.48,2.93,1.58,2.93,3.33,0,2.4-2,3.82-5.06,3.82C94.25,461,92.07,459.44,92.07,457.19Z" fill="#fff"/><path d="M104.33,458.55a2.38,2.38,0,1,1,2.38,2.36A2.35,2.35,0,0,1,104.33,458.55Z" fill="#fff"/><rect width="160" height="600" fill="none"/></g></g></svg>