<svg xmlns="http://www.w3.org/2000/svg" viewBox="0 0 160 600"><title>txt1a</title><g id="Layer_2" data-name="Layer 2"><g id="Layer_5_copy_2" data-name="Layer 5 copy 2"><path d="M25.23,391.32H20.62v-3.46H33.73v3.46H29.09v13.35H25.23Z" fill="#fff"/><path d="M47,397.51v7.16H43.3v-6c0-1.94-.55-2.83-2-2.83s-2.23,1-2.23,2.74v6.05H35.36V387.86H39v6.92a3.91,3.91,0,0,1,3.74-2C45.58,392.79,47,394.37,47,397.51Z" fill="#fff"/><path d="M61.21,399.89H52.66c.07,1.51,1.08,2.33,2.71,2.33,1.13,0,1.85-.31,2.16-1h3.6c-.36,2.28-2.68,3.79-5.76,3.79-3.93,0-6.36-2.23-6.36-6.1s2.47-6.09,6.24-6.09c3.6,0,6,2.23,6,5.49A12.92,12.92,0,0,1,61.21,399.89Zm-3.53-2.28a2.18,2.18,0,0,0-2.45-2.35,2.31,2.31,0,0,0-2.57,2.35Z" fill="#fff"/><rect width="160" height="600" fill="none"/></g></g></svg>