<svg xmlns="http://www.w3.org/2000/svg" viewBox="0 0 160 600"><title>txt1b</title><g id="Layer_2" data-name="Layer 2"><g id="Layer_5_copy" data-name="Layer 5 copy"><path d="M22,421.1h3.67v1.68a3.48,3.48,0,0,1,3.32-2,3.49,3.49,0,0,1,3.62,2.13,4,4,0,0,1,3.7-2.13c3.31,0,4.1,2.28,4.1,4.7v7.18H36.73v-6.51c0-1.61-.61-2.28-1.73-2.28s-2,.65-2,2.83v6H29.36v-6.53c0-1.61-.58-2.26-1.71-2.26s-2,.65-2,2.83v6H22Z" fill="#fff"/><path d="M42.41,426.88c0-3.53,2.45-6.09,6.43-6.09s6.41,2.56,6.41,6.09S52.8,433,48.84,433,42.41,430.41,42.41,426.88Zm9.19,0a2.77,2.77,0,1,0-2.76,3A2.71,2.71,0,0,0,51.6,426.88Z" fill="#fff"/><path d="M56.57,429.19h3.65c0,.79.77,1.34,1.9,1.34.79,0,1.34-.38,1.34-1.06,0-.52-.26-.84-1.25-1.08l-2.42-.6a3.37,3.37,0,0,1-2.91-3.38c0-2.19,2-3.62,4.95-3.62,3.26,0,5.16,1.27,5.16,3.57H63.36c0-.82-.6-1.25-1.58-1.25-.79,0-1.32.39-1.32.94s.34.86,1.27,1.1l2.45.68c1.82.48,2.93,1.58,2.93,3.33,0,2.4-2,3.82-5.07,3.82C58.76,433,56.57,431.44,56.57,429.19Z" fill="#fff"/><path d="M76.56,429.74v2.93a14.89,14.89,0,0,1-2.44.19c-1.73,0-4.11-.39-4.11-4.25V424H68.19v-2.9H70v-3.43h3.67v3.43H76.3V424H73.68v3.84c0,1.71.7,2,1.61,2A9.92,9.92,0,0,0,76.56,429.74Z" fill="#fff"/><rect width="160" height="600" fill="none"/></g></g></svg>