<svg xmlns="http://www.w3.org/2000/svg" viewBox="0 0 160 600"><title>txt2c</title><g id="Layer_2" data-name="Layer 2"><g id="Layer_8" data-name="Layer 8"><path d="M21.89,456.25V449.1h3.72v6.33c0,1.59.53,2.45,1.92,2.45,1.56,0,2.23-1,2.23-2.57V449.1h3.65v11.57H29.76V459a3.78,3.78,0,0,1-3.6,2C23.38,461,21.89,459.25,21.89,456.25Z" fill="#fff"/><path d="M49.23,454.88c0,3.63-2.23,6.1-5.43,6.1a4.2,4.2,0,0,1-3.69-2v6.44H36.46V449.1h3.65v1.65a4.33,4.33,0,0,1,3.79-2C47.07,448.79,49.23,451.23,49.23,454.88Zm-3.75,0a2.77,2.77,0,1,0-2.73,3.05A2.76,2.76,0,0,0,45.48,454.88Z" fill="#fff"/><path d="M63.44,443.86v16.81H59.79V459a4.16,4.16,0,0,1-3.68,2c-3.45,0-5.44-2.62-5.44-6.1s2.13-6.09,5.49-6.09a4,4,0,0,1,3.63,2v-6.89Zm-3.51,11a2.77,2.77,0,1,0-5.52,0,2.77,2.77,0,0,0,2.76,3.05C59,457.93,59.93,456.56,59.93,454.88Z" fill="#fff"/><path d="M65.64,454.88c0-3.45,2.14-6.09,5.5-6.09a4,4,0,0,1,3.62,2V449.1h3.65v11.57H74.76V459a4.13,4.13,0,0,1-3.67,2C67.63,461,65.64,458.36,65.64,454.88Zm9.27,0a2.77,2.77,0,1,0-5.52,0,2.77,2.77,0,1,0,5.52,0Z" fill="#fff"/><path d="M88.8,457.74v2.93a15,15,0,0,1-2.45.19c-1.72,0-4.1-.39-4.1-4.25V452H80.43v-2.9h1.82v-3.43h3.67v3.43h2.62V452H85.92v3.84c0,1.71.7,2,1.61,2A9.92,9.92,0,0,0,88.8,457.74Z" fill="#fff"/><path d="M102.2,455.89H93.65c.07,1.51,1.08,2.33,2.71,2.33,1.13,0,1.85-.31,2.16-1h3.6c-.36,2.28-2.68,3.79-5.76,3.79-3.93,0-6.36-2.23-6.36-6.1s2.47-6.09,6.24-6.09c3.6,0,6.05,2.23,6.05,5.49A12.92,12.92,0,0,1,102.2,455.89Zm-3.53-2.28a2.18,2.18,0,0,0-2.45-2.35,2.31,2.31,0,0,0-2.57,2.35Z" fill="#fff"/><path d="M103.61,457.19h3.65c0,.79.77,1.34,1.9,1.34.79,0,1.34-.38,1.34-1.06,0-.52-.26-.84-1.25-1.08l-2.42-.6a3.37,3.37,0,0,1-2.91-3.38c0-2.19,2-3.62,5-3.62,3.26,0,5.16,1.27,5.16,3.57H110.4c0-.82-.6-1.25-1.58-1.25-.79,0-1.32.39-1.32.94s.33.86,1.27,1.1l2.45.68c1.82.48,2.93,1.58,2.93,3.33,0,2.4-2,3.82-5.07,3.82C105.79,461,103.61,459.44,103.61,457.19Z" fill="#fff"/><path d="M115.87,458.55a2.38,2.38,0,1,1,2.38,2.36A2.35,2.35,0,0,1,115.87,458.55Z" fill="#fff"/><rect width="160" height="600" fill="none"/></g></g></svg>