<svg xmlns="http://www.w3.org/2000/svg" viewBox="0 0 160 600"><title>txt2a</title><g id="Layer_2" data-name="Layer 2"><g id="Layer_8_copy_2" data-name="Layer 8 copy 2"><path d="M31.37,402.63H25.42l-.58,2h-4.1l5.69-16.81h3.91l5.71,16.81H32Zm-.86-3.05-2.11-7.47-2.12,7.47Z" fill="#fff"/><path d="M37.8,393.1h3.68v1.68a3.91,3.91,0,0,1,3.74-2c2.81,0,4.23,1.58,4.23,4.72v7.16h-3.7v-6c0-1.94-.55-2.83-2-2.83s-2.23,1-2.23,2.74v6.05H37.8Z" fill="#fff"/><path d="M64.3,387.86v16.81H60.65V403A4.13,4.13,0,0,1,57,405c-3.46,0-5.45-2.62-5.45-6.1s2.14-6.09,5.5-6.09a4,4,0,0,1,3.62,2v-6.89Zm-3.5,11a2.77,2.77,0,1,0-5.52,0,2.77,2.77,0,1,0,5.52,0Z" fill="#fff"/><rect width="160" height="600" fill="none"/></g></g></svg>