<svg xmlns="http://www.w3.org/2000/svg" viewBox="0 0 160 600"><title>txt2b</title><g id="Layer_2" data-name="Layer 2"><g id="Layer_8_copy" data-name="Layer 8 copy"><path d="M21.1,426.88c0-3.65,2.38-6.09,6.19-6.09,3.46,0,5.71,1.82,6,4.7H29.62c-.26-1.08-1-1.58-2.3-1.58-1.59,0-2.55,1-2.55,3s1,3,2.55,3c1.34,0,2-.48,2.3-1.49h3.67c-.29,2.81-2.54,4.61-6,4.61C23.48,433,21.1,430.53,21.1,426.88Z" fill="#fff"/><path d="M34.9,426.88c0-3.53,2.45-6.09,6.43-6.09s6.41,2.56,6.41,6.09-2.45,6.1-6.41,6.1S34.9,430.41,34.9,426.88Zm9.19,0a2.77,2.77,0,1,0-2.76,3A2.71,2.71,0,0,0,44.09,426.88Z" fill="#fff"/><path d="M49.85,421.1h3.67v1.68a3.94,3.94,0,0,1,3.75-2c2.81,0,4.22,1.58,4.22,4.72v7.16H57.8v-6c0-1.94-.56-2.83-2-2.83s-2.24,1-2.24,2.74v6.05H49.85Z" fill="#fff"/><path d="M63.58,429.19h3.65c0,.79.77,1.34,1.89,1.34.8,0,1.35-.38,1.35-1.06,0-.52-.26-.84-1.25-1.08l-2.42-.6a3.37,3.37,0,0,1-2.91-3.38c0-2.19,2-3.62,5-3.62,3.26,0,5.16,1.27,5.16,3.57H70.37c0-.82-.6-1.25-1.58-1.25-.79,0-1.32.39-1.32.94s.33.86,1.27,1.1l2.45.68c1.82.48,2.93,1.58,2.93,3.33,0,2.4-2,3.82-5.07,3.82C65.76,433,63.58,431.44,63.58,429.19Z" fill="#fff"/><path d="M83.57,429.74v2.93a15,15,0,0,1-2.45.19c-1.72,0-4.1-.39-4.1-4.25V424H75.2v-2.9H77v-3.43h3.67v3.43h2.62V424H80.69v3.84c0,1.71.7,2,1.61,2A9.92,9.92,0,0,0,83.57,429.74Z" fill="#fff"/><path d="M84.77,426.88c0-3.45,2.14-6.09,5.5-6.09a4,4,0,0,1,3.62,2V421.1h3.65v11.57H93.89V431a4.13,4.13,0,0,1-3.67,2C86.76,433,84.77,430.36,84.77,426.88Zm9.27,0a2.77,2.77,0,1,0-5.52,0,2.77,2.77,0,1,0,5.52,0Z" fill="#fff"/><path d="M100.59,421.1h3.67v1.68a3.91,3.91,0,0,1,3.74-2c2.81,0,4.23,1.58,4.23,4.72v7.16h-3.7v-6c0-1.94-.55-2.83-2-2.83s-2.23,1-2.23,2.74v6.05h-3.67Z" fill="#fff"/><path d="M122.28,429.74v2.93a14.89,14.89,0,0,1-2.44.19c-1.73,0-4.11-.39-4.11-4.25V424h-1.82v-2.9h1.82v-3.43h3.67v3.43H122V424H119.4v3.84c0,1.71.7,2,1.61,2A9.92,9.92,0,0,0,122.28,429.74Z" fill="#fff"/><rect width="160" height="600" fill="none"/></g></g></svg>