<svg xmlns="http://www.w3.org/2000/svg" viewBox="0 0 300 250"><defs><style>.cls-1,.cls-3{fill:none;}.cls-1{stroke:#fff;stroke-miterlimit:10;stroke-width:1.44px;}.cls-2{fill:#fff;}</style></defs><title>cta</title><g id="Layer_2" data-name="Layer 2"><g id="cta"><g id="CTA-2" data-name="CTA"><path class="cls-1" d="M186.64,159.19H87.34a3,3,0,0,0-3.15,2.9V197a3,3,0,0,0,3.15,2.91H212.66a3,3,0,0,0,3.15-2.91V162.09a3,3,0,0,0-3.15-2.9Z"/><path class="cls-2" d="M113.65,181.32h1.61a1.84,1.84,0,0,0,1.95,2.05c1.06,0,1.65-.49,1.65-1.37s-.35-1.13-1.46-1.57l-1.59-.65a2.63,2.63,0,0,1-1.88-2.6c0-1.6,1.29-2.69,3.14-2.69a3,3,0,0,1,3.23,3.06h-1.61a1.53,1.53,0,0,0-1.68-1.69c-.92,0-1.46.48-1.46,1.22s.48,1.12,1.63,1.58l1.44.59a2.68,2.68,0,0,1,1.85,2.7c0,1.68-1.3,2.82-3.25,2.82C115,184.77,113.65,183.52,113.65,181.32Z"/><path class="cls-2" d="M127.88,181.77H123a1.59,1.59,0,0,0,1.82,1.6,1.43,1.43,0,0,0,1.46-.75h1.54a2.81,2.81,0,0,1-3,2.08,3.44,3.44,0,0,1,0-6.87,3,3,0,0,1,3.12,3.1C127.92,181.2,127.9,181.41,127.88,181.77Zm-1.46-1.16a1.47,1.47,0,0,0-1.65-1.57,1.56,1.56,0,0,0-1.74,1.57Z"/><path class="cls-2" d="M128.9,181.27a3.19,3.19,0,0,1,3.25-3.44,2.39,2.39,0,0,1,2,1V178h1.52v6.53H134.2v-.88a2.53,2.53,0,0,1-2.1,1A3.11,3.11,0,0,1,128.9,181.27Zm5.36,0a1.93,1.93,0,1,0-1.93,2.07A1.89,1.89,0,0,0,134.26,181.27Z"/><path class="cls-2" d="M137.67,178h1.53v1.26a1.76,1.76,0,0,1,1.74-1.34,2.69,2.69,0,0,1,.6.05v1.4c-.24,0-.37,0-.6,0-1.08,0-1.74.81-1.74,2.29v2.89h-1.53Z"/><path class="cls-2" d="M142.1,181.27a3.14,3.14,0,0,1,3.25-3.44,2.78,2.78,0,0,1,3.09,2.5h-1.52a1.4,1.4,0,0,0-1.57-1.14c-1.08,0-1.73.75-1.73,2.08s.65,2.07,1.73,2.07a1.39,1.39,0,0,0,1.57-1.06h1.52c-.14,1.45-1.27,2.42-3.09,2.42A3.13,3.13,0,0,1,142.1,181.27Z"/><path class="cls-2" d="M156,180.43v4.1h-1.53v-3.4c0-1.39-.36-2-1.43-2s-1.55.66-1.55,1.8v3.59h-1.53v-9.81h1.53v4.19a2.31,2.31,0,0,1,2.13-1.08C155.13,177.83,156,178.72,156,180.43Z"/><path class="cls-2" d="M161.33,178h1.53v.91a2.32,2.32,0,0,1,2.13-1.08c1.57,0,2.38.89,2.38,2.6v4.1h-1.53v-3.4c0-1.39-.36-2-1.43-2s-1.55.66-1.55,1.8v3.59h-1.53Z"/><path class="cls-2" d="M168.77,181.27a3.45,3.45,0,1,1,3.44,3.43A3.28,3.28,0,0,1,168.77,181.27Zm5.36,0a1.93,1.93,0,1,0-1.92,2.07A1.88,1.88,0,0,0,174.13,181.27Z"/><path class="cls-2" d="M175.93,178h1.69l1.35,4.32,1.42-4.32H182l1.42,4.32,1.36-4.32h1.68l-2.41,6.53H182.8l-1.58-4.65-1.59,4.65h-1.29Z"/></g><rect class="cls-3" width="300" height="250"/></g></g></svg>