<svg xmlns="http://www.w3.org/2000/svg" viewBox="0 0 300 250"><title>footer</title><g id="Layer_2" data-name="Layer 2"><g id="_300x250" data-name="300x250"><path d="M300,105.84c-35.59.34-71.17,6.35-112,17.21-42.08,11.19-97.62,17.42-118.78,18.57H69l231,28.21Z" fill="#ffd237"/><path d="M300,159.64C196,122.63,111.54,104,0,109.91V249.84H300Z" fill="#006aff"/><path d="M191.89,238.19c.31-.22.61-.44.91-.68,3.84-3.06,6.06-7.38,7.36-11.9,1.46-5.12,1.75-10.93-1.34-16.16-8.84-14.94-26.31-6.91-33.13,1.18-3.94,4.66-5.78,10.93-3.78,17.11s8.3,12,15.65,13.42A19.15,19.15,0,0,0,191.89,238.19Z" fill="#ffd237"/><rect x="180" y="214.84" width="3" height="35" fill="#f2a619"/><polygon points="266 184.84 291 209.84 291 249.84 244.91 249.84 219 184.84 266 184.84" fill="#0d4599"/><polygon points="219 184.84 245 209.84 245 249.84 194 249.84 194 209.84 219 184.84" fill="#e0f2ff"/><rect x="212" y="227.84" width="15" height="22" fill="#006aff"/><path d="M283,242.84H253v-25h30Zm-27-3h24v-19H256Z" fill="#ffd237"/><path d="M112.66,209.28h4.86l1.41,4.61c.47,1.52,1.26,4.39,1.26,4.39a0,0,0,0,0,.07,0s.81-2.92,1.27-4.39l1.48-4.61h3.59l1.45,4.61c.49,1.57,1.25,4.38,1.25,4.38a0,0,0,0,0,.07,0s.79-2.84,1.26-4.38l1.41-4.61h4.52l-4.89,15.22h-4.45L126,220.68c-.46-1.5-1.28-4.41-1.28-4.41a0,0,0,0,0-.07,0s-.82,2.85-1.31,4.38l-1.24,3.85h-4.52Z" fill="#fff"/><rect x="79.94" y="201.24" width="4.92" height="23.26" fill="#fff"/><rect x="88.5" y="201.24" width="4.92" height="23.26" fill="#fff"/><path d="M107.68,216.94a3.56,3.56,0,1,0-3.53,3.81,3.6,3.6,0,0,0,3.53-3.81m-11.82,0a8.27,8.27,0,1,1,8.29,8.07,8.07,8.07,0,0,1-8.29-8.07" fill="#fff"/><path d="M51.48,203.39v4.49h8.69s0,0,0,.06l-8.73,14.84a1.33,1.33,0,0,0-.26.85v.87H68.15V220H58.74a0,0,0,0,1,0-.07l8.83-15a1,1,0,0,0,.15-.6v-.94Z" fill="#fff"/><path d="M71.28,209.28H76.2V224.5H71.28Zm2.46-7.62a2.76,2.76,0,1,1-2.8,2.76,2.79,2.79,0,0,1,2.8-2.76" fill="#fff"/><path d="M36.52,206.64a.19.19,0,0,1,.23.09c.39.43,1.63,1.94,2,2.35a.14.14,0,0,1,0,.2A44.51,44.51,0,0,0,31.85,216s0,0,0,0a78,78,0,0,1,11.9-3.53v-3.62L32.59,200l-11.2,8.84v4A79.24,79.24,0,0,1,36.52,206.64Z" fill="#fff"/><path d="M27.43,221.84a.19.19,0,0,1-.25,0l-2.09-2.48c-.05-.07-.06-.11,0-.22a39.59,39.59,0,0,1,7-7.6s0-.06,0,0a94.11,94.11,0,0,0-10.7,4.68v8.46H43.77v-8.14A82.42,82.42,0,0,0,27.43,221.84Z" fill="#fff"/><path d="M139.84,207.11a.71.71,0,0,0-.73-.74h-.79v2.12h.35v-.63H139l.38.63h.4l-.42-.68A.73.73,0,0,0,139.84,207.11Zm-.75.43h-.42v-.86h.42a.43.43,0,0,1,0,.86Z" fill="#fff"/><path d="M139,205.63a1.84,1.84,0,1,0,1.84,1.84A1.83,1.83,0,0,0,139,205.63Zm0,3.32a1.49,1.49,0,1,1,1.48-1.48A1.48,1.48,0,0,1,139,209Z" fill="#fff"/><rect width="300" height="250" fill="none"/></g></g></svg>