<svg xmlns="http://www.w3.org/2000/svg" viewBox="0 0 300 250"><defs><style>.cls-1{fill:#fff;}.cls-2{fill:none;}</style></defs><title>txt1b</title><g id="Layer_2" data-name="Layer 2"><g id="txt1b"><path class="cls-1" d="M20.9,160.17h3.67V177H20.9Z"/><path class="cls-1" d="M27.17,162.16a2.21,2.21,0,0,1,2.25-2.26,2.25,2.25,0,1,1,0,4.49A2.2,2.2,0,0,1,27.17,162.16Zm.43,3.24h3.65V177H27.6Z"/><path class="cls-1" d="M33.45,173.49H37.1c0,.79.77,1.34,1.9,1.34.79,0,1.34-.38,1.34-1.05s-.26-.84-1.25-1.08l-2.42-.6a3.38,3.38,0,0,1-2.91-3.39c0-2.18,2-3.62,5-3.62,3.26,0,5.16,1.27,5.16,3.57H40.25c0-.81-.6-1.24-1.59-1.24-.79,0-1.32.38-1.32.93s.34.86,1.27,1.11l2.45.67c1.83.48,2.93,1.58,2.93,3.33,0,2.4-2,3.82-5.07,3.82C35.64,177.28,33.45,175.74,33.45,173.49Z"/><path class="cls-1" d="M53.45,174V177a15.14,15.14,0,0,1-2.45.19c-1.73,0-4.11-.38-4.11-4.25V168.3H45.07v-2.9h1.82V162h3.67v3.43h2.62v2.9H50.56v3.84c0,1.71.7,2,1.61,2A10.19,10.19,0,0,0,53.45,174Z"/><path class="cls-1" d="M55.12,162.16a2.27,2.27,0,1,1,2.26,2.23A2.21,2.21,0,0,1,55.12,162.16Zm.44,3.24h3.65V177H55.56Z"/><path class="cls-1" d="M62.25,165.4h3.67v1.68a3.94,3.94,0,0,1,3.75-2q4.22,0,4.22,4.73V177H70.2V171c0-2-.55-2.84-2-2.84s-2.24,1-2.24,2.74V177H62.25Z"/><path class="cls-1" d="M88.77,165.4v10.82a5.66,5.66,0,0,1-2.23,4.88,7.12,7.12,0,0,1-4.13,1,8,8,0,0,1-4.17-.94A4.18,4.18,0,0,1,76.17,178h3.75c.16.91,1,1.46,2.44,1.46,1.71,0,2.74-.74,2.74-2.81V175.1A4.08,4.08,0,0,1,81.48,177c-3.44,0-5.5-2.5-5.5-5.91s2.21-6,5.54-6a3.89,3.89,0,0,1,3.58,2V165.4Zm-3.5,5.71a2.77,2.77,0,1,0-2.79,3A2.77,2.77,0,0,0,85.27,171.11Z"/><path class="cls-1" d="M91,173.49H94.6c0,.79.77,1.34,1.9,1.34.79,0,1.34-.38,1.34-1.05s-.26-.84-1.24-1.08l-2.43-.6a3.37,3.37,0,0,1-2.9-3.39c0-2.18,2-3.62,4.94-3.62,3.27,0,5.16,1.27,5.16,3.57H97.75c0-.81-.6-1.24-1.59-1.24-.79,0-1.32.38-1.32.93s.34.86,1.28,1.11l2.44.67c1.83.48,2.93,1.58,2.93,3.33,0,2.4-2,3.82-5.06,3.82C93.14,177.28,91,175.74,91,173.49Z"/><path class="cls-1" d="M103.22,174.86a2.38,2.38,0,1,1,2.38,2.35A2.35,2.35,0,0,1,103.22,174.86Z"/><rect class="cls-2" width="300" height="250"/></g></g></svg>