<svg xmlns="http://www.w3.org/2000/svg" viewBox="0 0 300 250"><defs><style>.cls-1{fill:#fff;}.cls-2{fill:none;}</style></defs><title>txt2b</title><g id="Layer_2" data-name="Layer 2"><g id="txt2b"><path class="cls-1" d="M20.78,172.55V165.4H24.5v6.34c0,1.58.53,2.44,1.92,2.44,1.56,0,2.23-1,2.23-2.56V165.4H32.3V177H28.65v-1.66a3.76,3.76,0,0,1-3.6,2C22.27,177.28,20.78,175.55,20.78,172.55Z"/><path class="cls-1" d="M48.12,171.18c0,3.63-2.23,6.1-5.43,6.1A4.2,4.2,0,0,1,39,175.34v6.43H35.35V165.4H39v1.65a4.33,4.33,0,0,1,3.79-2C46,165.09,48.12,167.54,48.12,171.18Zm-3.75,0a2.77,2.77,0,1,0-2.73,3A2.76,2.76,0,0,0,44.37,171.18Z"/><path class="cls-1" d="M62.33,160.17V177H58.68v-1.63A4.18,4.18,0,0,1,55,177.28c-3.45,0-5.44-2.62-5.44-6.1s2.13-6.09,5.49-6.09a4,4,0,0,1,3.63,2v-6.88Zm-3.51,11a2.77,2.77,0,1,0-5.52,0,2.77,2.77,0,0,0,2.76,3C57.89,174.23,58.82,172.86,58.82,171.18Z"/><path class="cls-1" d="M64.53,171.18c0-3.45,2.14-6.09,5.5-6.09a4,4,0,0,1,3.62,2V165.4H77.3V177H73.65v-1.63A4.15,4.15,0,0,1,70,177.28C66.52,177.28,64.53,174.66,64.53,171.18Zm9.27,0a2.77,2.77,0,1,0-5.52,0,2.77,2.77,0,1,0,5.52,0Z"/><path class="cls-1" d="M87.69,174V177a15,15,0,0,1-2.45.19c-1.72,0-4.1-.38-4.1-4.25V168.3H79.32v-2.9h1.82V162h3.67v3.43h2.62v2.9H84.81v3.84c0,1.71.7,2,1.61,2A9.92,9.92,0,0,0,87.69,174Z"/><path class="cls-1" d="M101.08,172.19H92.54c.07,1.51,1.08,2.33,2.71,2.33,1.13,0,1.85-.31,2.16-1H101c-.36,2.28-2.69,3.79-5.76,3.79-3.93,0-6.36-2.23-6.36-6.1s2.47-6.09,6.24-6.09c3.6,0,6.05,2.23,6.05,5.49A11.31,11.31,0,0,1,101.08,172.19Zm-3.52-2.28a2.18,2.18,0,0,0-2.45-2.35,2.32,2.32,0,0,0-2.57,2.35Z"/><path class="cls-1" d="M102.5,173.49h3.65c0,.79.77,1.34,1.89,1.34.8,0,1.35-.38,1.35-1.05s-.27-.84-1.25-1.08l-2.42-.6a3.38,3.38,0,0,1-2.91-3.39c0-2.18,2-3.62,5-3.62,3.26,0,5.16,1.27,5.16,3.57h-3.63c0-.81-.6-1.24-1.58-1.24-.79,0-1.32.38-1.32.93s.33.86,1.27,1.11l2.45.67c1.82.48,2.93,1.58,2.93,3.33,0,2.4-2,3.82-5.07,3.82C104.68,177.28,102.5,175.74,102.5,173.49Z"/><path class="cls-1" d="M114.76,174.86a2.38,2.38,0,1,1,2.38,2.35A2.36,2.36,0,0,1,114.76,174.86Z"/><rect class="cls-2" width="300" height="250"/></g></g></svg>