<svg xmlns="http://www.w3.org/2000/svg" viewBox="0 0 300 250"><defs><style>.cls-1{fill:#fff;}.cls-2{fill:none;}</style></defs><title>txt2a</title><g id="Layer_2" data-name="Layer 2"><g id="txt2a"><path class="cls-1" d="M30.26,149.93h-6l-.58,2h-4.1l5.69-16.8h3.91L34.94,152h-4.1Zm-.86-3.05-2.11-7.47-2.12,7.47Z"/><path class="cls-1" d="M36.69,140.4h3.68v1.68a3.91,3.91,0,0,1,3.74-2c2.81,0,4.22,1.58,4.22,4.72V152H44.64V146c0-2-.55-2.84-2-2.84s-2.23,1-2.23,2.74V152H36.69Z"/><path class="cls-1" d="M63.19,135.17V152H59.54v-1.63a4.15,4.15,0,0,1-3.67,1.94c-3.46,0-5.45-2.62-5.45-6.1s2.14-6.09,5.5-6.09a4,4,0,0,1,3.62,2v-6.88Zm-3.5,11a2.77,2.77,0,1,0-5.52,0,2.77,2.77,0,1,0,5.52,0Z"/><path class="cls-1" d="M71.16,146.18c0-3.64,2.37-6.09,6.19-6.09,3.46,0,5.71,1.82,6,4.7H79.68c-.27-1.08-1-1.58-2.31-1.58-1.58,0-2.54,1-2.54,3s1,3,2.54,3c1.35,0,2-.48,2.31-1.49h3.67c-.29,2.81-2.54,4.61-6,4.61C73.53,152.28,71.16,149.83,71.16,146.18Z"/><path class="cls-1" d="M85,146.18c0-3.53,2.45-6.09,6.43-6.09s6.41,2.56,6.41,6.09-2.45,6.1-6.41,6.1S85,149.71,85,146.18Zm9.19,0a2.77,2.77,0,1,0-2.76,3A2.71,2.71,0,0,0,94.15,146.18Z"/><path class="cls-1" d="M99.91,140.4h3.67v1.68a3.92,3.92,0,0,1,3.75-2c2.8,0,4.22,1.58,4.22,4.72V152h-3.7V146c0-2-.55-2.84-2-2.84s-2.23,1-2.23,2.74V152H99.91Z"/><path class="cls-1" d="M113.64,148.49h3.64c0,.79.77,1.34,1.9,1.34.79,0,1.34-.38,1.34-1.05s-.26-.84-1.24-1.08l-2.43-.6a3.37,3.37,0,0,1-2.9-3.39c0-2.18,2-3.62,4.94-3.62,3.27,0,5.16,1.27,5.16,3.57h-3.62c0-.81-.6-1.24-1.59-1.24-.79,0-1.32.38-1.32.93s.34.86,1.28,1.11l2.45.67c1.82.48,2.92,1.58,2.92,3.33,0,2.4-2,3.82-5.06,3.82C115.82,152.28,113.64,150.74,113.64,148.49Z"/><path class="cls-1" d="M133.63,149V152a15,15,0,0,1-2.45.19c-1.73,0-4.1-.38-4.1-4.25V143.3h-1.83v-2.9h1.83V137h3.67v3.43h2.62v2.9h-2.62v3.84c0,1.71.7,2,1.61,2A10,10,0,0,0,133.63,149Z"/><path class="cls-1" d="M134.83,146.18c0-3.45,2.13-6.09,5.5-6.09a4,4,0,0,1,3.62,2V140.4h3.65V152H144v-1.63a4.15,4.15,0,0,1-3.67,1.94C136.82,152.28,134.83,149.66,134.83,146.18Zm9.26,0a2.77,2.77,0,1,0-5.52,0,2.77,2.77,0,0,0,2.76,3C143.16,149.23,144.09,147.86,144.09,146.18Z"/><path class="cls-1" d="M150.64,140.4h3.68v1.68a3.91,3.91,0,0,1,3.74-2c2.81,0,4.23,1.58,4.23,4.72V152h-3.7V146c0-2-.55-2.84-2-2.84s-2.23,1-2.23,2.74V152h-3.68Z"/><path class="cls-1" d="M172.34,149V152a15,15,0,0,1-2.45.19c-1.72,0-4.1-.38-4.1-4.25V143.3H164v-2.9h1.83V137h3.67v3.43h2.62v2.9h-2.62v3.84c0,1.71.7,2,1.61,2A10,10,0,0,0,172.34,149Z"/><rect class="cls-2" width="300" height="250"/></g></g></svg>