<svg xmlns="http://www.w3.org/2000/svg" viewBox="0 0 300 250"><defs><style>.cls-1{fill:#fff;}.cls-2{fill:none;}</style></defs><title>txt3b</title><g id="Layer_2" data-name="Layer 2"><g id="txt3b"><path class="cls-1" d="M32.54,169.83V177H28.85v-6c0-1.94-.56-2.83-2-2.83s-2.24,1-2.24,2.74V177H20.9V160.18h3.67v6.92a3.94,3.94,0,0,1,3.75-2C31.13,165.11,32.54,166.69,32.54,169.83Z"/><path class="cls-1" d="M34.56,171.2c0-3.53,2.45-6.09,6.43-6.09s6.41,2.56,6.41,6.09S45,177.3,41,177.3,34.56,174.73,34.56,171.2Zm9.19,0a2.77,2.77,0,1,0-2.76,3A2.71,2.71,0,0,0,43.75,171.2Z"/><path class="cls-1" d="M49.51,165.42h3.67v1.68a4,4,0,0,1,6.94.14,4,4,0,0,1,3.69-2.13c3.32,0,4.11,2.28,4.11,4.7V177h-3.7v-6.51c0-1.61-.6-2.28-1.73-2.28s-1.94.65-1.94,2.83v6h-3.7v-6.53c0-1.61-.57-2.26-1.7-2.26s-2,.65-2,2.83v6H49.51Z"/><path class="cls-1" d="M82.1,172.21H73.56c.07,1.51,1.08,2.33,2.71,2.33,1.13,0,1.85-.31,2.16-1H82c-.36,2.28-2.69,3.79-5.76,3.79-3.94,0-6.36-2.23-6.36-6.1s2.47-6.09,6.24-6.09c3.6,0,6,2.23,6,5.49A13,13,0,0,1,82.1,172.21Zm-3.53-2.28a2.16,2.16,0,0,0-2.44-2.35,2.31,2.31,0,0,0-2.57,2.35Z"/><path class="cls-1" d="M101.78,169.83V177H98.09v-6c0-1.94-.56-2.83-2-2.83s-2.23,1-2.23,2.74V177H90.14V160.18h3.67v6.92a3.93,3.93,0,0,1,3.75-2C100.37,165.11,101.78,166.69,101.78,169.83Z"/><path class="cls-1" d="M116,172.21h-8.55c.08,1.51,1.08,2.33,2.72,2.33,1.13,0,1.84-.31,2.16-1h3.6c-.36,2.28-2.69,3.79-5.76,3.79-3.94,0-6.36-2.23-6.36-6.1s2.47-6.09,6.24-6.09c3.6,0,6,2.23,6,5.49A13,13,0,0,1,116,172.21Zm-3.53-2.28a2.17,2.17,0,0,0-2.45-2.35,2.32,2.32,0,0,0-2.57,2.35Z"/><path class="cls-1" d="M118.2,165.42h3.67v2.42a3.23,3.23,0,0,1,3.19-2.61,3.72,3.72,0,0,1,1,.09v3.41a7.92,7.92,0,0,0-1.1-.07c-2,0-3,1.29-3,3.86V177H118.2Z"/><path class="cls-1" d="M139.2,172.21h-8.55c.07,1.51,1.08,2.33,2.71,2.33,1.13,0,1.85-.31,2.16-1h3.61c-.37,2.28-2.69,3.79-5.77,3.79-3.93,0-6.36-2.23-6.36-6.1s2.48-6.09,6.24-6.09c3.6,0,6,2.23,6,5.49A12.92,12.92,0,0,1,139.2,172.21Zm-3.53-2.28a2.18,2.18,0,0,0-2.45-2.35,2.32,2.32,0,0,0-2.57,2.35Z"/><path class="cls-1" d="M141,174.87a2.38,2.38,0,1,1,2.37,2.36A2.35,2.35,0,0,1,141,174.87Z"/><rect class="cls-2" width="300" height="250"/></g></g></svg>