<svg xmlns="http://www.w3.org/2000/svg" viewBox="0 0 300 250"><defs><style>.cls-1{fill:#fff;}.cls-2{fill:none;}</style></defs><title>txt3a</title><g id="Layer_2" data-name="Layer 2"><g id="txt3a"><path class="cls-1" d="M21,135.18H31.29v3.27H24.91V143h6.38v3.2H24.91V152H21Z"/><path class="cls-1" d="M33.45,137.18a2.27,2.27,0,1,1,2.26,2.23A2.21,2.21,0,0,1,33.45,137.18Zm.44,3.24h3.64V152H33.89Z"/><path class="cls-1" d="M40.58,140.42h3.67v1.68a3.94,3.94,0,0,1,3.75-2c2.81,0,4.22,1.58,4.22,4.72V152H48.53v-6c0-1.94-.56-2.83-2-2.83s-2.24,1-2.24,2.74V152H40.58Z"/><path class="cls-1" d="M67.08,135.18V152H63.43v-1.64a4.13,4.13,0,0,1-3.67,2c-3.46,0-5.45-2.62-5.45-6.1s2.13-6.09,5.5-6.09a4,4,0,0,1,3.62,2v-6.89Zm-3.51,11a2.77,2.77,0,1,0-5.52,0,2.77,2.77,0,0,0,2.76,3.05C62.64,149.25,63.57,147.88,63.57,146.2Z"/><path class="cls-1" d="M87.45,140.42v11.21a5.47,5.47,0,0,1-1.65,4.17,6.05,6.05,0,0,1-4.25,1.35,6.44,6.44,0,0,1-4.27-1.2,4.1,4.1,0,0,1-1.44-3h3.69c.07,1,.63,1.56,2,1.56s2.23-.79,2.23-2.59v-1.8A3.88,3.88,0,0,1,80.11,152c-3,0-4.27-2-4.27-4.85v-6.72h3.67v6.17c0,1.48.5,2.49,2,2.49s2.23-1.15,2.23-2.93v-5.73Z"/><path class="cls-1" d="M89.56,146.2c0-3.53,2.45-6.09,6.44-6.09s6.41,2.56,6.41,6.09S100,152.3,96,152.3,89.56,149.73,89.56,146.2Zm9.2,0a2.77,2.77,0,1,0-2.76,3A2.71,2.71,0,0,0,98.76,146.2Z"/><path class="cls-1" d="M104.4,147.57v-7.15h3.72v6.33c0,1.59.52,2.45,1.92,2.45,1.56,0,2.23-1,2.23-2.57v-6.21h3.65V152h-3.65v-1.66a3.8,3.8,0,0,1-3.6,2C105.88,152.3,104.4,150.57,104.4,147.57Z"/><path class="cls-1" d="M119,140.42h3.68v2.42a3.22,3.22,0,0,1,3.19-2.61,3.72,3.72,0,0,1,1,.09v3.41a8,8,0,0,0-1.11-.07c-2,0-3,1.29-3,3.86V152H119Z"/><rect class="cls-2" width="300" height="250"/></g></g></svg>