<svg xmlns="http://www.w3.org/2000/svg" viewBox="0 0 728 90"><title>cta</title><g id="Layer_2" data-name="Layer 2"><g id="Layer_12" data-name="Layer 12"><path d="M668.53,30h-83a2.54,2.54,0,0,0-2.63,2.43V61.57A2.54,2.54,0,0,0,585.53,64H690.28a2.53,2.53,0,0,0,2.62-2.43V32.43A2.53,2.53,0,0,0,690.28,30Z" fill="none" stroke="#fff" stroke-miterlimit="10" stroke-width="1.21"/><path d="M601.57,48.81h1.61a1.84,1.84,0,0,0,2,2c1.06,0,1.65-.49,1.65-1.37s-.35-1.12-1.46-1.57l-1.59-.64a2.65,2.65,0,0,1-1.88-2.61c0-1.59,1.29-2.69,3.14-2.69A3,3,0,0,1,608.22,45h-1.61a1.52,1.52,0,0,0-1.68-1.69c-.92,0-1.45.47-1.45,1.21s.47,1.12,1.62,1.59l1.44.59a2.67,2.67,0,0,1,1.85,2.7c0,1.68-1.3,2.81-3.25,2.81C602.87,52.25,601.57,51,601.57,48.81Z" fill="#fff"/><path d="M615.8,49.26H611a1.6,1.6,0,0,0,1.82,1.59,1.42,1.42,0,0,0,1.46-.74h1.54a2.8,2.8,0,0,1-3,2.07,3.13,3.13,0,0,1-3.33-3.43,3.15,3.15,0,0,1,3.28-3.43,3,3,0,0,1,3.12,3.1C615.84,48.68,615.83,48.89,615.8,49.26Zm-1.46-1.17a1.46,1.46,0,0,0-1.65-1.56A1.57,1.57,0,0,0,611,48.09Z" fill="#fff"/><path d="M616.82,48.75a3.19,3.19,0,0,1,3.25-3.43,2.4,2.4,0,0,1,2.06,1v-.88h1.51V52h-1.51v-.89a2.56,2.56,0,0,1-2.11,1A3.11,3.11,0,0,1,616.82,48.75Zm5.36,0a1.93,1.93,0,1,0-1.93,2.08A1.88,1.88,0,0,0,622.18,48.75Z" fill="#fff"/><path d="M625.59,45.49h1.53v1.26a1.76,1.76,0,0,1,1.74-1.35,2.58,2.58,0,0,1,.6.06v1.4a4,4,0,0,0-.6,0c-1.08,0-1.74.82-1.74,2.3V52h-1.53Z" fill="#fff"/><path d="M630,48.75a3.13,3.13,0,0,1,3.25-3.43,2.77,2.77,0,0,1,3.09,2.49h-1.52a1.39,1.39,0,0,0-1.57-1.13c-1.08,0-1.73.74-1.73,2.07s.65,2.08,1.73,2.08a1.39,1.39,0,0,0,1.57-1.07h1.52c-.14,1.46-1.27,2.42-3.09,2.42A3.13,3.13,0,0,1,630,48.75Z" fill="#fff"/><path d="M643.87,47.91V52h-1.53V48.61c0-1.38-.36-2-1.43-2s-1.55.66-1.55,1.81V52h-1.53V42.21h1.53V46.4a2.31,2.31,0,0,1,2.13-1.08C643.06,45.32,643.87,46.2,643.87,47.91Z" fill="#fff"/><path d="M649.25,45.49h1.53v.91a2.32,2.32,0,0,1,2.13-1.08c1.57,0,2.38.88,2.38,2.59V52h-1.52V48.61c0-1.38-.37-2-1.43-2s-1.56.66-1.56,1.81V52h-1.53Z" fill="#fff"/><path d="M656.69,48.75a3.45,3.45,0,1,1,3.44,3.43A3.27,3.27,0,0,1,656.69,48.75Zm5.36,0a1.93,1.93,0,1,0-1.92,2.08A1.87,1.87,0,0,0,662.05,48.75Z" fill="#fff"/><path d="M663.86,45.49h1.68l1.36,4.31,1.41-4.31H670l1.42,4.31,1.36-4.31h1.68L672,52h-1.29l-1.58-4.65L667.55,52h-1.29Z" fill="#fff"/><rect width="728" height="90" fill="none"/></g></g></svg>